<svg width="16" height="16" viewBox="0 0 16 16" fill="none" xmlns="http://www.w3.org/2000/svg">
<g clip-path="url(#clip0_2607_1426)">
<path fill-rule="evenodd" clip-rule="evenodd" d="M9.45453 2.16732C9.36151 2.16732 9.2753 2.21676 9.22826 2.29736L9.22416 2.30438L6.16666 7.26115V13.834H11.8905C12.0134 13.834 12.1196 13.7487 12.1462 13.629L12.1485 13.6186L13.8485 6.97883C13.8796 6.8179 13.7563 6.66732 13.5913 6.66732H11C10.5659 6.66732 10.1266 6.52228 9.80679 6.21014C9.47058 5.88199 9.31471 5.41203 9.41474 4.90572L9.89397 2.48001C9.92597 2.31806 9.80202 2.16732 9.63708 2.16732H9.45453ZM4.83333 13.834V7.73875H2.47102C2.32722 7.73875 2.21023 7.85476 2.20912 7.99872C2.20912 7.99872 2.20912 7.99872 2.20912 7.99872L2.16667 13.5701C2.16555 13.7154 2.2831 13.834 2.42851 13.834H4.83333ZM5.12792 6.40541L8.08138 1.61731C8.36826 1.13222 8.89015 0.833984 9.45453 0.833984H9.63708C10.6422 0.833984 11.3968 1.75237 11.202 2.73844L10.7228 5.16415C10.7143 5.20732 10.7198 5.22693 10.7211 5.23124C10.7226 5.23604 10.7259 5.24402 10.7381 5.25596C10.766 5.28317 10.849 5.33398 11 5.33398H13.5913C14.612 5.33398 15.3699 6.27923 15.1485 7.27539L15.1462 7.28579L13.4451 13.93C13.2786 14.6537 12.6341 15.1673 11.8905 15.1673H2.42851C1.54281 15.1673 0.826588 14.4457 0.833376 13.56C0.833376 13.56 0.833376 13.56 0.833376 13.56L0.875825 7.98854C0.882542 7.11235 1.59468 6.40541 2.47102 6.40541H5.12792Z" fill="#9A9CA5"/>
</g>
<defs>
<clipPath id="clip0_2607_1426">
<rect width="16" height="16" fill="white"/>
</clipPath>
</defs>
</svg>
