<svg width="16" height="16" viewBox="0 0 16 16" fill="none" xmlns="http://www.w3.org/2000/svg">
<path fill-rule="evenodd" clip-rule="evenodd" d="M6.77954 1.46709C7.24271 0.398992 8.75742 0.39899 9.22059 1.46709L10.6217 4.69809L14.1275 5.03216C15.2864 5.14259 15.7545 6.58317 14.8818 7.35373L12.2419 9.68466L13.0075 13.1221C13.2606 14.2585 12.0352 15.1488 11.0327 14.5569L8.00007 12.7665L4.96744 14.5569C3.96492 15.1488 2.73949 14.2585 2.99259 13.1221L3.75823 9.68466L1.11832 7.35373C0.245627 6.58317 0.713699 5.14259 1.87265 5.03216L5.37847 4.69809L6.77954 1.46709ZM9.40114 5.22735L8.00007 1.99635L6.59899 5.22735C6.40623 5.67189 5.98701 5.97647 5.50466 6.02243L1.99884 6.35649L4.63875 8.68743C5.00196 9.00813 5.16209 9.50095 5.05675 9.97389L4.29111 13.4114L7.32374 11.621C7.74098 11.3746 8.25916 11.3746 8.6764 11.621L11.709 13.4114L10.9434 9.97389C10.838 9.50095 10.9982 9.00813 11.3614 8.68743L14.0013 6.35649L10.4955 6.02243C10.0131 5.97647 9.59391 5.67189 9.40114 5.22735Z" fill="#FF3F3A"/>
</svg>
